<?xml version="1.0" encoding="utf-8"?>
<!-- Generator: Adobe Illustrator 26.0.1, SVG Export Plug-In . SVG Version: 6.00 Build 0)  -->
<svg version="1.1" id="Layer_1" xmlns="http://www.w3.org/2000/svg" xmlns:xlink="http://www.w3.org/1999/xlink" x="0px" y="0px"
	 viewBox="0 0 50.64 53.9" style="enable-background:new 0 0 50.64 53.9;" xml:space="preserve">
<rect x="7.72" y="19.58" width="5.3" height="27.37"/>
<rect x="17.72" y="19.58" width="5.3" height="27.37"/>
<rect x="28.02" y="19.58" width="5.3" height="27.37"/>
<rect x="38.32" y="19.58" width="5.3" height="27.37"/>
<polygon points="47.13,51.5 47.13,48.94 44.36,48.94 44.36,46.39 7.18,46.39 7.18,48.94 3.51,48.94 3.51,51.5 0,51.5 0,54.23 
	50.64,54.23 50.64,51.5 "/>
<path d="M3.16,20.25h47.48v-1.52L26.71,0.34L3.16,18.44V20.25z M26.61,6.39c2.03,0,3.67,1.75,3.67,3.92c0,2.16-1.65,3.92-3.67,3.92
	s-3.67-1.75-3.67-3.92C22.93,8.15,24.58,6.39,26.61,6.39z"/>
</svg>
